<svg xmlns="http://www.w3.org/2000/svg" width="1024" height="1024" viewBox="0 0 1024 1024"><path fill="#f77a20" d="M428.468 257.233c3.994-1.952 16.558-4.65 21.081-5.647a260.3 260.3 0 0 1 136.416 7.584c8.617 2.949 37.21 14.278 44.026 19.363 6.888 3.269 14.436 8.653 20.91 13.011a257.67 257.67 0 0 1 97.32 124.42c2.047 5.746 4.225 14.267 6.296 19.374-6.416-4.143-12.308-6.742-18.785-10.397l-8.473-4.115c-6.17-2.884-12.879-5.879-18.815-9.115-12.814-25.024-21.471-39.717-40.701-60.51a222.4 222.4 0 0 0-154.963-70.83 225.1 225.1 0 0 0-163.309 61.245c-44.011 43.966-69.504 98.223-69.972 161.151-.126 16.929 2.271 37.6 7.048 53.825-2.125 6.291-5.683 13.615-8.323 19.927-1.25 2.932-2.423 5.842-3.904 8.664-1.214 5.07-6.255 13.322-7.84 19.97-6.809-16.258-10.824-26.977-15.177-44.038-15.652-61.346-5.128-132.237 27.582-186.418 28.064-46.488 68.981-84.637 119.032-106.399 8.753-3.806 21.295-8.829 30.551-11.065"/><path fill="#3d405b" d="M326.739 344.572c44.793-47.674 103.029-75.96 168.856-78.017a237.83 237.83 0 0 1 170.752 63.038 248.75 248.75 0 0 1 60.912 91.233c-6.17-2.884-12.879-5.879-18.815-9.115-12.814-25.024-21.471-39.717-40.701-60.51a222.4 222.4 0 0 0-154.963-70.83 225.1 225.1 0 0 0-163.309 61.245c-4.038-3.692-5.244-.449-8.768-2.924-.921-.647-2.454-.343-3.016.076-4.71 3.515-2.596 7.647-10.948 5.804"/><path fill="#3d405b" d="m428.468 257.233.899.464c1.472-.378 6.65-1.896 7.775-1.677-3.06 2.083-8.793 2.133-15.009 6.936 3.268-.586 6.641-1.361 9.951-1.592 5.054-.353 24.006.472 26.904-.867 1.588-.734 4.539-.292 6.289-.061l.338.53c-3.874 2.733-19.002 3.595-19.523 5.858-13.707 3.849-25.475 7.283-38.73 12.902a246.94 246.94 0 0 0-118.355 106.621 237.1 237.1 0 0 0-21.679 179.473c1.439 5.088 4.58 14.883 6.992 19.363-1.214 5.07-6.255 13.322-7.84 19.97-6.809-16.258-10.824-26.977-15.177-44.038-15.652-61.346-5.128-132.237 27.582-186.418 28.064-46.488 68.981-84.637 119.032-106.399 8.753-3.806 21.295-8.829 30.551-11.065"/><path fill="#3d405b" d="M326.739 344.572c8.352 1.843 6.238-2.289 10.948-5.804.562-.419 2.095-.723 3.016-.076 3.524 2.475 4.73-.768 8.768 2.924-44.011 43.966-69.504 98.223-69.972 161.151-.126 16.929 2.271 37.6 7.048 53.825-2.125 6.291-5.683 13.615-8.323 19.927-6.775-10.519-12.107-46.118-12.75-59.356-3.197-65.836 17.69-123.737 61.265-172.591m303.252-66.039c6.888 3.269 14.436 8.653 20.91 13.011a257.67 257.67 0 0 1 97.32 124.42c2.047 5.746 4.225 14.267 6.296 19.374-6.416-4.143-12.308-6.742-18.785-10.397-5.401-14.238-10.073-25.57-17.497-38.998a247.84 247.84 0 0 0-105.276-100.672c.29-.711.566-1.149.938-1.818 3.853-1.454 8.549-.986 12.612-.773 1.614-.65 2.5-2.578 3.482-4.147"/><path fill="#3d405b" d="M428.468 257.233c3.994-1.952 16.558-4.65 21.081-5.647a260.3 260.3 0 0 1 136.416 7.584c8.617 2.949 37.21 14.278 44.026 19.363-.982 1.569-1.868 3.497-3.482 4.147-4.063-.213-8.759-.681-12.612.773-.372.669-.648 1.107-.938 1.818a248.13 248.13 0 0 0-132.664-23.994c-11.853 1.143-22.518 3.191-34.203 5.547.521-2.263 15.649-3.125 19.523-5.858l-.338-.53c-1.75-.231-4.701-.673-6.289.061-2.898 1.339-21.85.514-26.904.867-3.31.231-6.683 1.006-9.951 1.592 6.216-4.803 11.949-4.853 15.009-6.936-1.125-.219-6.303 1.299-7.775 1.677zm7.89 164.524c1.249 1.419 1.861 7.822 2.257 10.089l5.204 29.004 24.332 141.608a773 773 0 0 0-42.036.061c-1.452-9.234-3.592-22.69-4.277-31.795-6.737-.188-14.644.183-21.524.17l-43.775-.27c-2.351 5.697-5.593 12.138-8.267 17.735a548 548 0 0 1-6.873 14.627c-14.04-.667-29.314-.414-43.475-.393 3.713-6.52 8.218-16.809 11.641-23.82a2960 2960 0 0 0 28.111-59.121c14.968-32.009 31.952-65.35 45.904-97.725 17.596-.223 35.126.155 52.778-.17m-62.334 111.778c4.047.148 8.048.325 12.101.266q14.825-.28 29.653-.255c-2.892-15.526-4.911-31.503-7.756-47.071-.624-3.414-2.311-16.025-3.482-18.7-3.883 6.767-7.725 15.298-11.081 22.441a1349 1349 0 0 0-19.435 43.319M634.26 419.209a50 50 0 0 1 2.19-.093c23.439-.633 47.193 5.008 64.603 21.537-3.219 3.305-10.259 8.219-14.061 11.058-5.848 4.366-11.515 8.815-17.307 13.243-17.387-7.908-29.846-11.54-48.94-4.44a53.32 53.32 0 0 0-30.594 28.608c-6.133 13.69-6.244 29.902-.769 43.813a53.7 53.7 0 0 0 29.111 29.501c17.397 7.337 31.972 4.404 48.535-2.375 6.767 4.828 14.51 11.183 21.17 16.36a483 483 0 0 1 13.002 9.357c-35.248 27.182-88.17 25.649-122.454-2.384a92 92 0 0 1-32.935-62.508c-5.325-55.549 34.481-96.416 88.449-101.677m-141.278 3.415c8.726.086 19.888.365 28.488-.106.094 7.846.399 16.884-.025 24.618a302 302 0 0 1-6.919 7.569 306 306 0 0 0 .018 18.337l1.112-.908c1.312-3.612.816-12.692.749-16.895 2.887-2.633 4.922-4.428 7.412-7.41.1-2 .089-4.261.128-6.287 2.038.896 2.303 1.207 4.059 2.658.146 4.29-.061 9.163-.148 13.498 1.09 1.614 2.538 3.835 3.819 5.324 1.671 2.052 10.078 7.028 9.722 9.975-.704 5.839-9.497 17.34-12.877 21.465l-.01 16.348c-9.411 10.452-5.993 12.098 3.041 20.606 2.548 2.399 5.797 5.885 7.776 8.75.329 5.709.132 13.347.139 19.196 7.183 6.313 5.384 15.459-4.897 13.217-2.107-.46-2.984-3.498-3.735-5.518-2.857 9.093 1.287 29.433-3.127 34.591-1.595.445-.84.511-2.338-.214-1.937-3.034-1.364-10.652-1.391-14.653-2.598-2.434-8.923-7.771-9.399-11.084 2.038-2.692 6.687.85 11.747-.63 3.246-2.951.274-6.753-1.777-9.504-.411-6.697-.18-13.589-.546-20.426-4.99-5.785-11.84-10.752-16.948-16.831-.434-5.65-.301-10.383-.212-16.04q4.199-3.974 8.352-7.993c.087-4.052.165-10.948-.53-14.79-1.155 5.762-1.084 8.426-.878 14.372-2.508 2.376-5.477 4.905-8.086 7.237-.444 4.808-.242 13.504-.27 18.68 5.039 5.476 11.127 10.625 16.525 16.549.196 6.803.101 13.987.178 20.819.016 1.44-.058 1.089-1.169 2.067 1.985 1.003 3.7.315 4.422 2.928-2.544 4.012-11.334-1.427-13.163 3.849.793 4.163 6.127 8.388 8.617 12.439.416 4.311.247 8.817.188 13.161l-7.298-.119c.164-3.023.03-5.096-.145-8.11l-8.057-8.107c-.32-9.571-.032-21.329-.026-31.052-5.351-5.357-9.764-9.281-15.481-14.171.034-4.709.616-15.174-.823-18.938-1.37 1.386-1.215 16.307-1.267 19.523 4.819 4.89 10.182 9.506 15.16 14.516.491 10.085.345 21.075.393 31.233 2.726 2.543 4.685 4.474 7.193 7.223l.638 7.94c-6.181.724-17.233.413-23.816.404.209-8.217.906-34.87-.057-41.965-3.877-4.089-8.892-8.706-13.009-12.672.183-13.248-.212-26.772-.13-40.04.477-3.827-2.519-6.641-2.291-10.396.447-7.354 7.658-5.002 12.143-4.122 2.092-5.028.382-21.785.409-27.842.012-2.647-3.716-4.59-5.705-6.571l-.338-.341c-1.147-8.713-9.842-20.105 7.469-18.114.131-4.453-1.421-14.294 1.886-17.017 1.953-.06 1.37-.425 2.506.434.453 2.214.487 10.513.655 13.445 2.651 3.147 4.542 5.308 7.835 7.775 1.384 10.74.45 34.423-.004 45.81 2.692 2.102 3.863 2.515 6.973 3.893-1.911-1.735-3.225-3.224-4.93-5.129.024-14.433.507-30.29.003-44.55-2.49-3.265-4.077-4.653-7.13-7.459-1.605-3.06-.753-10.558-.803-14.445m21.367 54.403-1.595.75c-1.852-.143-1.193.006-2.856-1.479-.487-3.746-.329-9.992-.348-14.002l.006-25.685c11.986-10.329-3.542-12.673-6.232-7.154.163 2.089.056 1.385 1.341 3.308 1.334.838 2.145 1.465 2.382 3.359 1.284 10.26.596 21.507.666 31.845.041 6.026.593 12.085.27 17.894l-.143-.232c1.499 1.293.801 1.187 2.311 1.333 1.461-2.463-.687-5.124.574-6.425 2.264-.259 2.163.111 3.682-1.072.351-1.707.436-.926-.058-2.44m-36.332 25.894-.071 41.114c6.303 5.645 12.571 11.536 18.144 17.906.144 8.911.36 17.6.034 26.514-4.881 5.526-1.35 10.953 4.271 8.23 2.594-4.113 1.564-4.931-1.612-8.194-.133-9.08.224-18.118.232-27.196-5.977-6.399-12.585-11.768-18.527-18.231.153-8.965-1.165-33.751 1.217-40.441.562-1.577 1.848-4.233 1.13-5.782-.55-1.186-1.662-1.85-2.897-2.11-.844-.177-1.722-.242-2.581-.314-2.918 4.149-2.517 4.546.66 8.504m54.541-24.155c-3.919 4.936-5.645 7.123-10.788 10.628a311 311 0 0 0-.22 17.458c-2.134 2.058-5.797 5.4-7.636 7.521l.01 9.817c5.034 4.893 12.638 11.456 16.589 16.803.073 7.605-.182 18.016.244 25.456 4.302 3.724 7.315 6.102 10.953-.133-2.625-5.157-4.391-5.227-8.959-2.062.972-8.987.803-15.584.585-24.574-5.253-5.035-12.416-11.365-17.248-16.522-.114-2.443-.274-4.997-.336-7.431 2.654-4.069 3.529-5.551 7.769-7.839l.085-17.232c3.448-3.574 13.58-12.951 13.718-17.915.026-.935-.379-1.134-.997-1.984-1.606-.744-1.878-.981-3.687-.937-3.2 4.058-2.797 4.762-.082 8.946m-35.066 27.559c.621 9.821.026 18.178-.588 28.031 2.249 3.687 12.283 12.066 15.869 15.932-.321 3.845-.913 18.865.486 21.773.874.324.713.337 1.619.424.099-7.396.35-15.419.078-22.759-4.529-4.543-11.358-10.859-15.402-15.419q-.12-13.696-.022-27.39c2.383-2.298 3.758-3.036 3.85-6.363-1.322-2.452-3.275-2.625-5.949-2.638-4.953 2.923-3.651 5.478.059 8.409m26.299-29.245c-2.195 5.434-7.263 6.469-8.692 11.402 1.548.066 9.178-8.445 10.703-10.041.152-2.492.103-5.413.123-7.941 1.417-1.712 3.663-3.837 2.825-6.292a3.54 3.54 0 0 0-2.365-2.249c-2.29-.687-5.167 1.484-4.577 3.326 1.401 4.373 1.757 7.256 1.983 11.795m-41.274-25.681c2.247-1.905 3.86-3.501 2.562-6.657-1.467-1.539-1.971-1.722-4.19-1.919-2.413 2.108-3.489 4.151-1.661 7.267 1.504 1.19 1.377 1.136 3.289 1.309m4.72.587c-4.054 4.286-2.315 6.586 1.564 9.894a1124 1124 0 0 0-.031 31.646c.03 3.854.359 10.756.199 14.331-4.311 4.109-8.073 10.421.919 11.815l1.338-.655c7.552-7.54-.663-7.33-1.14-13.895-.389-5.365-.139-11.917-.083-17.426q.113-13.319.006-26.636l.561-.093c7.719-1.332 5.98-9.784-3.333-8.981"/><path fill="#3d405b" d="M508.678 428.063a2.82 2.82 0 0 1 .077 5.633 2.816 2.816 0 0 1-2.577-4.218 2.82 2.82 0 0 1 2.5-1.415"/><path fill="#3d405b" d="M492.982 422.624c8.726.086 19.888.365 28.488-.106.094 7.846.399 16.884-.025 24.618a302 302 0 0 1-6.919 7.569 306 306 0 0 0 .018 18.337c-.253 1.633-.731 2.717-.195 3.985l-1.595.75c-1.852-.143-1.193.006-2.856-1.479-.487-3.746-.329-9.992-.348-14.002l.006-25.685c11.986-10.329-3.542-12.673-6.232-7.154.163 2.089.056 1.385 1.341 3.308l-.274.51.895 1.469c-.807 1.644-.228.974-1.924 1.961-4.185.065-5.882-2.033-9.577.364-1.605-3.06-.753-10.558-.803-14.445"/><path fill="#646464" fill-opacity=".008" d="M532.64 469.82c1.809-.044 2.081.193 3.687.937.618.85 1.023 1.049.997 1.984-.138 4.964-10.27 14.341-13.718 17.915l-.085 17.232c-4.24 2.288-5.115 3.77-7.769 7.839.062 2.434.222 4.988.336 7.431 4.832 5.157 11.995 11.487 17.248 16.522.218 8.99.387 15.587-.585 24.574 4.568-3.165 6.334-3.095 8.959 2.062-3.638 6.235-6.651 3.857-10.953.133-.426-7.44-.171-17.851-.244-25.456-3.951-5.347-11.555-11.91-16.589-16.803l-.01-9.817c1.839-2.121 5.502-5.463 7.636-7.521a311 311 0 0 1 .22-17.458c5.143-3.505 6.869-5.692 10.788-10.628-2.715-4.184-3.118-4.888.082-8.946m-45.403-17.834c9.313-.803 11.052 7.649 3.333 8.981l-.561.093q.107 13.317-.006 26.636c-.056 5.509-.306 12.061.083 17.426.477 6.565 8.692 6.355 1.14 13.895l-1.338.655c-8.992-1.394-5.23-7.706-.919-11.815.16-3.575-.169-10.477-.199-14.331q-.207-15.824.031-31.646c-3.879-3.308-5.618-5.608-1.564-9.894"/><path fill="#3d405b" d="M488.788 510.127c4.239 1.77 4.043 3.957 2.081 7.389-2.851-.557-3.751-.518-4.422-3.443.438-2.096.825-2.288 2.341-3.946m.687-56.085a2.734 2.734 0 1 1 1.628 5.219 2.734 2.734 0 0 1-1.628-5.219"/><path fill="#646464" fill-opacity=".008" d="M523.791 477.08c1.694.409 1.056-.045 2.011 1.361-1.525 1.596-9.155 10.107-10.703 10.041 1.429-4.933 6.497-5.968 8.692-11.402"/><path fill="#3d405b" d="M690.975 464.195a38.5 38.5 0 0 1 20.051 3.073c10.451 4.687 17.59 13.332 19.167 25.044.516 3.836-.282 9.805.988 13.499 2.219 6.457 5.866 11.467 8.348 18.097-3.625.988-5.019 1.35-8.743 1.73q-.018.583-.051 1.165c-.317 5.765-1.283 12.023-2.321 17.449-1.925 10.07-7.638 8.287-15.526 7.338-9.909-1.192-9.636 9.07-9.912 16.625-12.562-.107-19.817-6.27-29.737-13.828-4.832-3.385-3.094-5.431-3.646-11.346-.563-6.021-1.592-10.569-3.431-16.311 2.925 1.941 7.593 5.427 10.818 6.231 31.403 7.838 44.482-38.807 12.891-47.167-8.373-2.216-14.789.396-21.856 4.822-1.503-3.143-3.729-6.009-5.762-8.856 7.115-11.233 15.915-15.914 28.722-17.565"/><path fill="#3d405b" d="M728.84 456.255q2.786.065 5.562.306c17.251 1.576 34.548 12.989 35.882 31.696.34 4.769-.819 9.547.725 14.241 1.719 5.225 9.492 14.052 8.92 19.373-1.667 2.224-5.961 2.42-8.758 2.836-.796 6.519-1.925 24.213-6.004 26.25-11.487 5.736-22.518-8.447-22.159 17.111l-16.133.007-17.946-.113.079-10.261c8.626-.538 15.25.857 22.431-4.334 3.699-8.297 2.285-14.358 4.445-22.779 19.418-6.237 1.626-16.223.967-24.841-1.817-23.747-3.135-33.343-27.313-45.274 7.197-2.687 11.665-3.643 19.302-4.218m-98.64 17.819c3.417-.226 7.338-.091 10.802-.051.273 7.963.819 9.695 8.48 12.056 7.806-5.408 9.804-2.208 14.989 4.383-4.962 4.4-4.202 5.584-3.179 11.865-3.792.688-5.525.729-9.405.803-2.208-3.233-3.778-5.713-7.184-7.88a18.34 18.34 0 0 0-14.03-2.422 18.56 18.56 0 0 0-11.99 8.77c-10.984 18.993 19.652 41.663 33.467 15.626q3.233-.287 6.47-.505c1.736-.108 2.671-.195 3.991.979-.021 1.9-.293 1.649-1.518 3.561-2.221 3.415.669 6.979 2.364 10.149-2.061 3.433-3.947 5.369-7.114 7.698-9.228-6.601-14.286-5.67-15.031 6.416l-11.685-.024c-2.593-10.184-5.4-13.618-15.123-6.622-7.459-4.831-7.95-5.99-3.603-13.563-1.25-2.924-2.147-5.324-3.97-7.943l-7.33-1.366c-.07-3.784.092-7.11.281-10.893 7.82-2.191 7.599-2.043 10.927-9.428-1.249-1.944-3.089-4.26-4.503-6.148 3.021-3.5 4.72-5.038 8.616-7.365 2.117 1.264 3.963 2.763 5.921 4.262 10.45-3.662 5.084-4.879 9.357-12.358"/><path fill="#3d405b" d="M681.764 489.924c7.287-.43 3.153 2.51 8.298 4.619 2.125.871 6.595-1.196 9.264 1.095 1.444 2.94.105 5.642-.864 8.803 2.519 1.202 4.508 1.727 5.789 4.107-.313 3.146-4.596 5.22-6.936 8.581 1.418 2.274 3.194 3.537 1.805 6.146-2.368 1.113-5.805-.237-8.493.722-3.354 1.196-2.935 4.259-6.479 5.248-3.11-.857-4.737-3.418-6.619-5.901-3.06.731-8.161 2.096-9.881-1.34.283-3.146 1.974-2.811 1.882-5.124-1.504-1.748-2.874-2.484-4.79-3.746-4.312-.369-8.046-.54-12.376-.652l-5.321.062c-2.371 4.295-7.575 10.742-13.33 9.315-13.898-3.447-11.839-26.277 4.564-22.321 4.202 1.014 6.433 4.353 8.412 7.849 5.461-.157 13.554.555 18.448-1.515 6.101-2.579 1.205-5.479 3.019-9.801 5.991-4.895 6.612 3.084 13.608-6.147m5.479 27.85a9.225 9.225 0 1 0-6.139-17.396 9.225 9.225 0 0 0 6.139 17.396m-49.507-.991a7.118 7.118 0 1 0-4.593-13.474 7.118 7.118 0 0 0 4.593 13.474m-113.791-75.241c-.089-4.171-.903-15.368.809-18.609 1.339-.659.619-.433 2.432-.114 1.558 2.091.848 17.456.818 21.381-1.756-1.451-2.021-1.762-4.059-2.658"/></svg>